<?xml version="1.0" encoding="UTF-8" ?>
<svg version="1.1" width="128" height="128" xmlns="http://www.w3.org/2000/svg" shape-rendering="crispEdges">
<rect x="27" y="0" width="1" height="1" fill="#E0C03F" />
<rect x="28" y="0" width="2" height="19" fill="#EBDF42" />
<rect x="30" y="0" width="13" height="1" fill="#E0C03F" />
<rect x="43" y="0" width="6" height="2" fill="#33211B" />
<rect x="49" y="0" width="19" height="4" fill="#F7FAC8" />
<rect x="68" y="0" width="5" height="11" fill="#33211B" />
<rect x="73" y="0" width="23" height="1" fill="#E0C03F" />
<rect x="26" y="1" width="1" height="2" fill="#E0C03F" />
<rect x="27" y="1" width="1" height="22" fill="#EBDF42" />
<rect x="30" y="1" width="1" height="4" fill="#EBDF42" />
<rect x="31" y="1" width="12" height="1" fill="#E0C03F" />
<rect x="73" y="1" width="13" height="1" fill="#E0C03F" />
<rect x="86" y="1" width="2" height="8" fill="#EBDF42" />
<rect x="88" y="1" width="9" height="1" fill="#E0C03F" />
<rect x="25" y="2" width="1" height="15" fill="#E0C03F" />
<rect x="31" y="2" width="11" height="14" fill="#E0C03F" />
<rect x="42" y="2" width="6" height="1" fill="#33211B" />
<rect x="48" y="2" width="1" height="10" fill="#F7FAC8" />
<rect x="73" y="2" width="12" height="16" fill="#E0C03F" />
<rect x="85" y="2" width="1" height="5" fill="#EBDF42" />
<rect x="88" y="2" width="1" height="10" fill="#EBDF42" />
<rect x="89" y="2" width="9" height="3" fill="#E0C03F" />
<rect x="24" y="3" width="1" height="17" fill="#E0C03F" />
<rect x="26" y="3" width="1" height="21" fill="#EBDF42" />
<rect x="42" y="3" width="5" height="1" fill="#33211B" />
<rect x="47" y="3" width="1" height="8" fill="#F7FAC8" />
<rect x="98" y="3" width="1" height="18" fill="#E0C03F" />
<rect x="23" y="4" width="1" height="30" fill="#E0C03F" />
<rect x="42" y="4" width="4" height="7" fill="#33211B" />
<rect x="46" y="4" width="1" height="6" fill="#F7FAC8" />
<rect x="49" y="4" width="18" height="1" fill="#F7FAC8" />
<rect x="67" y="4" width="1" height="11" fill="#33211B" />
<rect x="99" y="4" width="1" height="31" fill="#E0C03F" />
<rect x="30" y="5" width="1" height="18" fill="#E0C03F" />
<rect x="49" y="5" width="17" height="4" fill="#F7FAC8" />
<rect x="66" y="5" width="1" height="11" fill="#33211B" />
<rect x="89" y="5" width="1" height="8" fill="#EBDF42" />
<rect x="90" y="5" width="8" height="2" fill="#E0C03F" />
<rect x="100" y="5" width="1" height="30" fill="#E0C03F" />
<rect x="22" y="7" width="1" height="27" fill="#E0C03F" />
<rect x="85" y="7" width="1" height="17" fill="#E0C03F" />
<rect x="90" y="7" width="1" height="8" fill="#EBDF42" />
<rect x="91" y="7" width="7" height="1" fill="#E0C03F" />
<rect x="101" y="7" width="1" height="27" fill="#E0C03F" />
<rect x="91" y="8" width="1" height="8" fill="#EBDF42" />
<rect x="92" y="8" width="6" height="2" fill="#E0C03F" />
<rect x="21" y="9" width="1" height="25" fill="#E0C03F" />
<rect x="49" y="9" width="16" height="1" fill="#F7FAC8" />
<rect x="65" y="9" width="1" height="8" fill="#33211B" />
<rect x="86" y="9" width="1" height="16" fill="#E0C03F" />
<rect x="87" y="9" width="1" height="1" fill="#EBDF42" />
<rect x="102" y="9" width="1" height="24" fill="#E0C03F" />
<rect x="46" y="10" width="1" height="6" fill="#33211B" />
<rect x="49" y="10" width="15" height="1" fill="#F7FAC8" />
<rect x="64" y="10" width="1" height="8" fill="#33211B" />
<rect x="87" y="10" width="1" height="15" fill="#E0C03F" />
<rect x="92" y="10" width="1" height="8" fill="#EBDF42" />
<rect x="93" y="10" width="5" height="1" fill="#E0C03F" />
<rect x="42" y="11" width="1" height="5" fill="#E0C03F" />
<rect x="43" y="11" width="3" height="2" fill="#33211B" />
<rect x="47" y="11" width="1" height="6" fill="#33211B" />
<rect x="49" y="11" width="13" height="1" fill="#F7FAC8" />
<rect x="62" y="11" width="2" height="7" fill="#33211B" />
<rect x="68" y="11" width="4" height="1" fill="#33211B" />
<rect x="72" y="11" width="1" height="7" fill="#E0C03F" />
<rect x="93" y="11" width="1" height="9" fill="#EBDF42" />
<rect x="94" y="11" width="4" height="2" fill="#E0C03F" />
<rect x="103" y="11" width="1" height="20" fill="#E0C03F" />
<rect x="20" y="12" width="1" height="21" fill="#E0C03F" />
<rect x="48" y="12" width="4" height="5" fill="#33211B" />
<rect x="52" y="12" width="9" height="1" fill="#F7FAC8" />
<rect x="61" y="12" width="1" height="6" fill="#33211B" />
<rect x="68" y="12" width="3" height="1" fill="#33211B" />
<rect x="71" y="12" width="1" height="5" fill="#E0C03F" />
<rect x="88" y="12" width="1" height="13" fill="#E0C03F" />
<rect x="43" y="13" width="1" height="3" fill="#E0C03F" />
<rect x="44" y="13" width="2" height="1" fill="#33211B" />
<rect x="52" y="13" width="1" height="5" fill="#33211B" />
<rect x="53" y="13" width="7" height="1" fill="#F7FAC8" />
<rect x="60" y="13" width="1" height="5" fill="#33211B" />
<rect x="68" y="13" width="2" height="1" fill="#33211B" />
<rect x="70" y="13" width="1" height="4" fill="#E0C03F" />
<rect x="89" y="13" width="1" height="12" fill="#E0C03F" />
<rect x="94" y="13" width="1" height="9" fill="#EBDF42" />
<rect x="95" y="13" width="3" height="2" fill="#E0C03F" />
<rect x="19" y="14" width="1" height="18" fill="#E0C03F" />
<rect x="44" y="14" width="1" height="1" fill="#E0C03F" />
<rect x="45" y="14" width="1" height="1" fill="#33211B" />
<rect x="53" y="14" width="7" height="4" fill="#33211B" />
<rect x="68" y="14" width="1" height="1" fill="#33211B" />
<rect x="69" y="14" width="1" height="3" fill="#E0C03F" />
<rect x="44" y="15" width="2" height="7" fill="#FAE7D2" />
<rect x="67" y="15" width="2" height="2" fill="#E0C03F" />
<rect x="90" y="15" width="1" height="10" fill="#E0C03F" />
<rect x="95" y="15" width="1" height="10" fill="#EBDF42" />
<rect x="96" y="15" width="2" height="1" fill="#E0C03F" />
<rect x="104" y="15" width="1" height="15" fill="#E0C03F" />
<rect x="31" y="16" width="10" height="1" fill="#E0C03F" />
<rect x="41" y="16" width="3" height="6" fill="#FAE7D2" />
<rect x="46" y="16" width="1" height="7" fill="#FAE7D2" />
<rect x="66" y="16" width="1" height="37" fill="#FAE7D2" />
<rect x="91" y="16" width="1" height="16" fill="#E0C03F" />
<rect x="96" y="16" width="1" height="10" fill="#EBDF42" />
<rect x="97" y="16" width="1" height="2" fill="#E0C03F" />
<rect x="18" y="17" width="1" height="15" fill="#E0C03F" />
<rect x="25" y="17" width="1" height="7" fill="#EBDF42" />
<rect x="31" y="17" width="8" height="1" fill="#E0C03F" />
<rect x="39" y="17" width="2" height="5" fill="#FAE7D2" />
<rect x="47" y="17" width="2" height="7" fill="#FAE7D2" />
<rect x="49" y="17" width="3" height="1" fill="#33211B" />
<rect x="65" y="17" width="1" height="36" fill="#FAE7D2" />
<rect x="67" y="17" width="5" height="6" fill="#FAE7D2" />
<rect x="31" y="18" width="7" height="2" fill="#E0C03F" />
<rect x="38" y="18" width="1" height="6" fill="#FAE7D2" />
<rect x="49" y="18" width="16" height="7" fill="#FAE7D2" />
<rect x="72" y="18" width="3" height="4" fill="#FAE7D2" />
<rect x="75" y="18" width="10" height="1" fill="#E0C03F" />
<rect x="92" y="18" width="1" height="15" fill="#E0C03F" />
<rect x="97" y="18" width="1" height="8" fill="#EBDF42" />
<rect x="28" y="19" width="1" height="2" fill="#EBDF42" />
<rect x="29" y="19" width="1" height="6" fill="#E0C03F" />
<rect x="75" y="19" width="2" height="3" fill="#FAE7D2" />
<rect x="77" y="19" width="8" height="1" fill="#E0C03F" />
<rect x="17" y="20" width="1" height="11" fill="#E0C03F" />
<rect x="24" y="20" width="1" height="3" fill="#EBDF42" />
<rect x="31" y="20" width="6" height="1" fill="#E0C03F" />
<rect x="37" y="20" width="1" height="5" fill="#FAE7D2" />
<rect x="77" y="20" width="2" height="2" fill="#FAE7D2" />
<rect x="79" y="20" width="6" height="1" fill="#E0C03F" />
<rect x="93" y="20" width="1" height="14" fill="#E0C03F" />
<rect x="28" y="21" width="1" height="6" fill="#E0C03F" />
<rect x="31" y="21" width="3" height="1" fill="#E0C03F" />
<rect x="34" y="21" width="3" height="4" fill="#FAE7D2" />
<rect x="79" y="21" width="4" height="3" fill="#FAE7D2" />
<rect x="83" y="21" width="2" height="1" fill="#E0C03F" />
<rect x="98" y="21" width="1" height="4" fill="#EBDF42" />
<rect x="105" y="21" width="1" height="8" fill="#E0C03F" />
<rect x="31" y="22" width="3" height="32" fill="#FAE7D2" />
<rect x="39" y="22" width="7" height="10" fill="#52321D" />
<rect x="72" y="22" width="1" height="1" fill="#FAE7D2" />
<rect x="73" y="22" width="6" height="10" fill="#52321D" />
<rect x="83" y="22" width="1" height="6" fill="#FAE7D2" />
<rect x="84" y="22" width="1" height="1" fill="#E0C03F" />
<rect x="94" y="22" width="1" height="13" fill="#E0C03F" />
<rect x="24" y="23" width="1" height="11" fill="#E0C03F" />
<rect x="27" y="23" width="1" height="6" fill="#E0C03F" />
<rect x="30" y="23" width="1" height="33" fill="#FAE7D2" />
<rect x="46" y="23" width="1" height="9" fill="#52321D" />
<rect x="67" y="23" width="4" height="1" fill="#FAE7D2" />
<rect x="71" y="23" width="2" height="9" fill="#52321D" />
<rect x="84" y="23" width="1" height="30" fill="#FAE7D2" />
<rect x="25" y="24" width="2" height="8" fill="#E0C03F" />
<rect x="38" y="24" width="1" height="8" fill="#52321D" />
<rect x="47" y="24" width="2" height="8" fill="#52321D" />
<rect x="67" y="24" width="3" height="1" fill="#FAE7D2" />
<rect x="70" y="24" width="1" height="8" fill="#52321D" />
<rect x="79" y="24" width="1" height="8" fill="#52321D" />
<rect x="80" y="24" width="3" height="1" fill="#FAE7D2" />
<rect x="85" y="24" width="1" height="29" fill="#FAE7D2" />
<rect x="16" y="25" width="1" height="5" fill="#E0C03F" />
<rect x="29" y="25" width="1" height="32" fill="#FAE7D2" />
<rect x="34" y="25" width="1" height="1" fill="#FAE7D2" />
<rect x="35" y="25" width="3" height="7" fill="#52321D" />
<rect x="49" y="25" width="1" height="7" fill="#52321D" />
<rect x="50" y="25" width="15" height="1" fill="#FAE7D2" />
<rect x="67" y="25" width="2" height="2" fill="#FAE7D2" />
<rect x="69" y="25" width="1" height="7" fill="#52321D" />
<rect x="80" y="25" width="1" height="7" fill="#52321D" />
<rect x="81" y="25" width="2" height="1" fill="#FAE7D2" />
<rect x="86" y="25" width="5" height="29" fill="#FAE7D2" />
<rect x="95" y="25" width="1" height="10" fill="#E0C03F" />
<rect x="98" y="25" width="1" height="10" fill="#E0C03F" />
<rect x="34" y="26" width="1" height="6" fill="#52321D" />
<rect x="50" y="26" width="1" height="6" fill="#52321D" />
<rect x="51" y="26" width="14" height="27" fill="#FAE7D2" />
<rect x="81" y="26" width="1" height="6" fill="#52321D" />
<rect x="82" y="26" width="1" height="1" fill="#FAE7D2" />
<rect x="96" y="26" width="2" height="9" fill="#E0C03F" />
<rect x="28" y="27" width="1" height="31" fill="#FAE7D2" />
<rect x="67" y="27" width="1" height="26" fill="#FAE7D2" />
<rect x="68" y="27" width="1" height="5" fill="#52321D" />
<rect x="82" y="27" width="1" height="5" fill="#52321D" />
<rect x="83" y="28" width="1" height="4" fill="#52321D" />
<rect x="27" y="29" width="1" height="30" fill="#FAE7D2" />
<rect x="25" y="32" width="1" height="1" fill="#E0C03F" />
<rect x="26" y="32" width="1" height="28" fill="#FAE7D2" />
<rect x="34" y="32" width="9" height="7" fill="#FFFFFF" />
<rect x="43" y="32" width="8" height="6" fill="#101114" />
<rect x="68" y="32" width="8" height="8" fill="#FFFFFF" />
<rect x="76" y="32" width="8" height="7" fill="#101114" />
<rect x="91" y="32" width="1" height="28" fill="#FAE7D2" />
<rect x="92" y="33" width="1" height="27" fill="#FAE7D2" />
<rect x="43" y="38" width="7" height="1" fill="#101114" />
<rect x="50" y="38" width="1" height="15" fill="#FAE7D2" />
<rect x="34" y="39" width="1" height="14" fill="#FAE7D2" />
<rect x="35" y="39" width="8" height="1" fill="#FFFFFF" />
<rect x="43" y="39" width="6" height="1" fill="#101114" />
<rect x="49" y="39" width="1" height="14" fill="#FAE7D2" />
<rect x="76" y="39" width="7" height="1" fill="#101114" />
<rect x="83" y="39" width="1" height="14" fill="#FAE7D2" />
<rect x="35" y="40" width="2" height="13" fill="#FAE7D2" />
<rect x="37" y="40" width="6" height="1" fill="#FFFFFF" />
<rect x="43" y="40" width="5" height="1" fill="#101114" />
<rect x="48" y="40" width="1" height="13" fill="#FAE7D2" />
<rect x="68" y="40" width="1" height="13" fill="#FAE7D2" />
<rect x="69" y="40" width="7" height="1" fill="#FFFFFF" />
<rect x="76" y="40" width="6" height="2" fill="#101114" />
<rect x="82" y="40" width="1" height="13" fill="#FAE7D2" />
<rect x="37" y="41" width="1" height="12" fill="#FAE7D2" />
<rect x="38" y="41" width="5" height="1" fill="#FFFFFF" />
<rect x="43" y="41" width="2" height="1" fill="#101114" />
<rect x="45" y="41" width="3" height="12" fill="#FAE7D2" />
<rect x="69" y="41" width="1" height="12" fill="#FAE7D2" />
<rect x="70" y="41" width="6" height="1" fill="#FFFFFF" />
<rect x="38" y="42" width="3" height="11" fill="#FAE7D2" />
<rect x="41" y="42" width="2" height="1" fill="#FFFFFF" />
<rect x="43" y="42" width="2" height="11" fill="#FAE7D2" />
<rect x="70" y="42" width="2" height="11" fill="#FAE7D2" />
<rect x="72" y="42" width="4" height="1" fill="#FFFFFF" />
<rect x="76" y="42" width="5" height="1" fill="#101114" />
<rect x="81" y="42" width="1" height="11" fill="#FAE7D2" />
<rect x="41" y="43" width="2" height="10" fill="#FAE7D2" />
<rect x="72" y="43" width="9" height="10" fill="#FAE7D2" />
<rect x="25" y="52" width="1" height="8" fill="#FAE7D2" />
<rect x="24" y="53" width="1" height="6" fill="#FAE7D2" />
<rect x="34" y="53" width="52" height="11" fill="#52321D" />
<rect x="31" y="54" width="1" height="1" fill="#FAE7D2" />
<rect x="32" y="54" width="2" height="30" fill="#52321D" />
<rect x="86" y="54" width="1" height="27" fill="#52321D" />
<rect x="87" y="54" width="4" height="1" fill="#FAE7D2" />
<rect x="31" y="55" width="1" height="28" fill="#52321D" />
<rect x="87" y="55" width="1" height="25" fill="#52321D" />
<rect x="88" y="55" width="3" height="3" fill="#FAE7D2" />
<rect x="30" y="56" width="1" height="27" fill="#52321D" />
<rect x="93" y="56" width="1" height="3" fill="#FAE7D2" />
<rect x="29" y="57" width="1" height="25" fill="#52321D" />
<rect x="28" y="58" width="1" height="24" fill="#52321D" />
<rect x="88" y="58" width="1" height="21" fill="#52321D" />
<rect x="89" y="58" width="2" height="1" fill="#FAE7D2" />
<rect x="27" y="59" width="1" height="23" fill="#52321D" />
<rect x="89" y="59" width="1" height="19" fill="#52321D" />
<rect x="90" y="59" width="1" height="1" fill="#FAE7D2" />
<rect x="26" y="60" width="1" height="22" fill="#52321D" />
<rect x="90" y="60" width="3" height="17" fill="#52321D" />
<rect x="34" y="64" width="17" height="22" fill="#52321D" />
<rect x="51" y="64" width="17" height="10" fill="#F59F7F" />
<rect x="68" y="64" width="18" height="19" fill="#52321D" />
<rect x="51" y="74" width="17" height="33" fill="#52321D" />
<rect x="90" y="77" width="1" height="1" fill="#52321D" />
<rect x="68" y="83" width="17" height="2" fill="#52321D" />
<rect x="33" y="84" width="1" height="1" fill="#52321D" />
<rect x="68" y="85" width="16" height="3" fill="#52321D" />
<rect x="35" y="86" width="16" height="1" fill="#52321D" />
<rect x="36" y="87" width="15" height="1" fill="#52321D" />
<rect x="37" y="88" width="14" height="1" fill="#52321D" />
<rect x="68" y="88" width="15" height="2" fill="#52321D" />
<rect x="38" y="89" width="13" height="1" fill="#52321D" />
<rect x="39" y="90" width="12" height="1" fill="#52321D" />
<rect x="68" y="90" width="14" height="1" fill="#52321D" />
<rect x="40" y="91" width="11" height="1" fill="#52321D" />
<rect x="68" y="91" width="13" height="1" fill="#52321D" />
<rect x="41" y="92" width="10" height="1" fill="#52321D" />
<rect x="68" y="92" width="12" height="1" fill="#52321D" />
<rect x="42" y="93" width="9" height="1" fill="#52321D" />
<rect x="68" y="93" width="11" height="1" fill="#52321D" />
<rect x="43" y="94" width="8" height="1" fill="#52321D" />
<rect x="68" y="94" width="9" height="1" fill="#52321D" />
<rect x="44" y="95" width="7" height="2" fill="#52321D" />
<rect x="68" y="95" width="8" height="1" fill="#52321D" />
<rect x="68" y="96" width="7" height="1" fill="#52321D" />
<rect x="45" y="97" width="6" height="2" fill="#52321D" />
<rect x="68" y="97" width="6" height="2" fill="#52321D" />
<rect x="46" y="99" width="5" height="1" fill="#52321D" />
<rect x="68" y="99" width="5" height="3" fill="#52321D" />
<rect x="47" y="100" width="4" height="2" fill="#52321D" />
<rect x="48" y="102" width="3" height="1" fill="#52321D" />
<rect x="68" y="102" width="3" height="1" fill="#52321D" />
<rect x="49" y="103" width="2" height="1" fill="#52321D" />
<rect x="68" y="103" width="2" height="1" fill="#52321D" />
<rect x="50" y="104" width="1" height="2" fill="#52321D" />
<rect x="68" y="104" width="1" height="1" fill="#52321D" />
<rect x="51" y="107" width="16" height="13" fill="#52321D" />
<rect x="67" y="115" width="1" height="9" fill="#52321D" />
<rect x="52" y="120" width="15" height="1" fill="#52321D" />
<rect x="53" y="121" width="14" height="2" fill="#52321D" />
<rect x="54" y="123" width="13" height="4" fill="#52321D" />
</svg>